<svg width="30" height="30" viewBox="0 0 30 30" fill="none" xmlns="http://www.w3.org/2000/svg">
<path d="M3 16.25V15.3125C3 14.5666 3.29632 13.8512 3.82376 13.3238C4.35121 12.7963 5.06658 12.5 5.8125 12.5H24.5625C25.3084 12.5 26.0238 12.7963 26.5512 13.3238C27.0787 13.8512 27.375 14.5666 27.375 15.3125V16.25M16.5125 8.2L13.8625 5.55C13.6884 5.37569 13.4817 5.2374 13.2541 5.14303C13.0265 5.04865 12.7826 5.00005 12.5362 5H5.8125C5.06658 5 4.35121 5.29632 3.82376 5.82376C3.29632 6.35121 3 7.06658 3 7.8125V22.8125C3 23.5584 3.29632 24.2738 3.82376 24.8012C4.35121 25.3287 5.06658 25.625 5.8125 25.625H24.5625C25.3084 25.625 26.0238 25.3287 26.5512 24.8012C27.0787 24.2738 27.375 23.5584 27.375 22.8125V11.5625C27.375 10.8166 27.0787 10.1012 26.5512 9.57376C26.0238 9.04632 25.3084 8.75 24.5625 8.75H17.8388C17.3416 8.74956 16.8638 8.55173 16.5125 8.2Z" stroke="white" stroke-width="2.5" stroke-linecap="round" stroke-linejoin="round"/>
</svg>
