<svg width="30" height="30" viewBox="0 0 30 30" fill="none" xmlns="http://www.w3.org/2000/svg">
<path d="M12.925 19.8C12.065 19.725 11.1925 19.6875 10.3125 19.6875H9.375C7.88316 19.6875 6.45242 19.0949 5.39752 18.04C4.34263 16.9851 3.75 15.5543 3.75 14.0625C3.75 12.5707 4.34263 11.1399 5.39752 10.085C6.45242 9.03013 7.88316 8.4375 9.375 8.4375H10.3125C11.1925 8.4375 12.065 8.4 12.925 8.325M12.925 19.8C13.2413 21.0025 13.655 22.165 14.1562 23.2787C14.465 23.9662 14.2313 24.7913 13.5775 25.1675L12.7562 25.6425C12.0675 26.04 11.1813 25.7887 10.8475 25.0662C10.0554 23.3526 9.45182 21.5579 9.0475 19.7137M12.925 19.8C12.4337 17.9271 12.1859 15.9987 12.1875 14.0625C12.1875 12.08 12.4438 10.1575 12.925 8.325M12.925 19.8C16.7769 20.1301 20.5278 21.2064 23.9687 22.9688M12.925 8.325C16.7769 7.9949 20.5278 6.91866 23.9687 5.15625M23.9687 22.9688C23.8212 23.4437 23.6625 23.9113 23.4938 24.375M23.9687 22.9688C24.6488 20.7769 25.0741 18.5141 25.2362 16.225M23.9687 5.15625C23.8222 4.68361 23.6638 4.21472 23.4938 3.75M23.9687 5.15625C24.6488 7.34805 25.0741 9.61088 25.2362 11.9M25.2362 11.9C25.855 12.4163 26.25 13.1938 26.25 14.0625C26.25 14.9312 25.855 15.7087 25.2362 16.225M25.2362 11.9C25.3388 13.3398 25.3388 14.7852 25.2362 16.225" stroke="white" stroke-width="2.5" stroke-linecap="round" stroke-linejoin="round"/>
</svg>
