<svg width="60" height="60" viewBox="0 0 60 60" fill="none" xmlns="http://www.w3.org/2000/svg">
<path d="M45 18.75V26.25M45 26.25V33.75M45 26.25H52.5M45 26.25H37.5M31.875 15.9375C31.875 18.1753 30.9861 20.3214 29.4037 21.9037C27.8214 23.486 25.6753 24.375 23.4375 24.375C21.1997 24.375 19.0536 23.486 17.4713 21.9037C15.8889 20.3214 15 18.1753 15 15.9375C15 13.6997 15.8889 11.5536 17.4713 9.97129C19.0536 8.38895 21.1997 7.5 23.4375 7.5C25.6753 7.5 27.8214 8.38895 29.4037 9.97129C30.9861 11.5536 31.875 13.6997 31.875 15.9375ZM7.5 48.0875V47.8125C7.5 43.5856 9.17912 39.5318 12.168 36.543C15.1568 33.5541 19.2106 31.875 23.4375 31.875C27.6644 31.875 31.7182 33.5541 34.707 36.543C37.6959 39.5318 39.375 43.5856 39.375 47.8125V48.085C34.5637 50.9827 29.0515 52.5095 23.435 52.5C17.6075 52.5 12.155 50.8875 7.5 48.085V48.0875Z" stroke="#212121" stroke-width="3.5" stroke-linecap="round" stroke-linejoin="round"/>
</svg>
